<?xml version="1.0" standalone="no"?>
<!DOCTYPE svg PUBLIC "-//W3C//DTD SVG 20010904//EN"
 "http://www.w3.org/TR/2001/REC-SVG-20010904/DTD/svg10.dtd">
<svg version="1.0" xmlns="http://www.w3.org/2000/svg"
 width="512.000000pt" height="512.000000pt" viewBox="0 0 512.000000 512.000000"
 preserveAspectRatio="xMidYMid meet">
<metadata>
Created by potrace 1.14, written by Peter Selinger 2001-2017
</metadata>
<g transform="translate(0.000000,512.000000) scale(0.100000,-0.100000)"
fill="#000000" stroke="none">
<path d="M2478 4416 c-51 -19 -69 -31 -214 -149 -69 -56 -138 -111 -152 -122
-15 -11 -187 -148 -382 -304 -456 -364 -427 -341 -474 -379 -23 -18 -48 -39
-56 -45 -170 -135 -207 -164 -218 -174 -7 -7 -41 -34 -75 -60 -129 -99 -158
-129 -187 -191 -26 -55 -25 -153 2 -214 33 -73 111 -133 191 -146 l41 -7 0
-730 c1 -402 -1 -738 -3 -747 -2 -11 -13 -18 -28 -18 -126 0 -227 -98 -226
-220 1 -69 22 -118 68 -159 75 -66 -62 -61 1799 -61 l1691 0 51 24 c86 40 129
117 122 216 -3 46 -11 70 -34 103 -36 52 -119 97 -180 97 -25 0 -43 5 -46 12
-3 11 -2 1432 1 1476 1 6 14 12 30 12 35 0 114 41 152 80 87 87 92 246 11 345
-13 16 -83 76 -155 133 -132 105 -133 106 -192 87 -14 -4 -35 5 -70 32 -103
79 -112 90 -109 132 3 44 -5 53 -126 145 -75 57 -93 63 -140 42 -10 -4 -44 16
-97 59 -79 63 -82 66 -76 100 4 26 1 41 -13 56 -10 11 -121 102 -247 202 -126
100 -272 217 -325 261 -53 43 -115 87 -137 98 -50 26 -147 33 -197 14z"/>
</g>
</svg>
